<?xml version="1.0" encoding="UTF-8" standalone="no" ?>
<!DOCTYPE svg PUBLIC "-//W3C//DTD SVG 1.1//EN" "http://www.w3.org/Graphics/SVG/1.1/DTD/svg11.dtd">
<svg xmlns="http://www.w3.org/2000/svg" xmlns:xlink="http://www.w3.org/1999/xlink" version="1.1" width="1280" height="720" viewBox="0 0 1280 720" xml:space="preserve">
<desc>Created with Fabric.js 5.2.4</desc>
<defs>
</defs>
<g transform="matrix(1 0 0 1 640 360)" id="a81aedea-3b3e-42a7-ad65-850c80808116"  >
<rect style="stroke: none; stroke-width: 1; stroke-dasharray: none; stroke-linecap: butt; stroke-dashoffset: 0; stroke-linejoin: miter; stroke-miterlimit: 4; fill: rgb(0,111,255); fill-rule: nonzero; opacity: 1;" vector-effect="non-scaling-stroke"  x="-640" y="-360" rx="0" ry="0" width="1280" height="720" />
</g>
<g transform="matrix(Infinity NaN NaN Infinity 0 0)" id="62d7df23-36c9-4d18-a3fb-8df2aa01d151"  >
</g>
<g transform="matrix(30 0 0 30 625 345)"  >
<path style="stroke: rgb(255,255,255); stroke-width: 1; stroke-dasharray: none; stroke-linecap: round; stroke-dashoffset: 0; stroke-linejoin: round; stroke-miterlimit: 4; fill: none; fill-rule: nonzero; opacity: 1;"  transform=" translate(-12, -12)" d="M 8 7 L 8 3 M 16 7 L 16 3 M 7 11 L 17 11 M 5 21 L 19 21 C 20.104569499661586 21 21 20.104569499661586 21 19 L 21 7 C 21 5.8954305003384135 20.104569499661586 5 19 5 L 5 5 C 3.895430500338413 5 3 5.8954305003384135 3 7 L 3 19 C 3 20.104569499661586 3.895430500338413 21 5 21 z" stroke-linecap="round" />
</g>
</svg>